<mxfile host="app.diagrams.net" modified="2023-04-12T01:20:04.391Z" agent="Mozilla/5.0 (Windows NT 10.0; Win64; x64) AppleWebKit/537.36 (KHTML, like Gecko) Chrome/112.0.0.0 Safari/537.36" etag="uvfIboaulAseeff5pEuA" version="21.1.6" type="github">
  <diagram name="Page-1" id="74e2e168-ea6b-b213-b513-2b3c1d86103e">
    <mxGraphModel dx="2074" dy="1067" grid="1" gridSize="10" guides="1" tooltips="1" connect="1" arrows="1" fold="1" page="1" pageScale="1" pageWidth="1100" pageHeight="850" background="none" math="0" shadow="0">
      <root>
        <mxCell id="0" />
        <mxCell id="1" parent="0" />
        <mxCell id="PDKEiuR8H4hDW7ctw3Op-2" style="edgeStyle=orthogonalEdgeStyle;orthogonalLoop=1;jettySize=auto;html=1;curved=1;entryX=0;entryY=0.527;entryDx=0;entryDy=0;entryPerimeter=0;endArrow=classic;endFill=1;" edge="1" parent="1" source="ZkDkmKv_Wg0DZdJq-MGv-2" target="PDKEiuR8H4hDW7ctw3Op-1">
          <mxGeometry relative="1" as="geometry">
            <mxPoint x="100" y="660" as="targetPoint" />
            <Array as="points">
              <mxPoint x="50" y="729" />
            </Array>
          </mxGeometry>
        </mxCell>
        <mxCell id="ZkDkmKv_Wg0DZdJq-MGv-2" value="Strafe left" style="shape=ext;double=1;rounded=1;whiteSpace=wrap;html=1;fillColor=#76608a;fontColor=#ffffff;strokeColor=#432D57;" parent="1" vertex="1">
          <mxGeometry x="40" y="256.5" width="120" height="80" as="geometry" />
        </mxCell>
        <mxCell id="ZkDkmKv_Wg0DZdJq-MGv-27" style="edgeStyle=orthogonalEdgeStyle;rounded=0;orthogonalLoop=1;jettySize=auto;html=1;" parent="1" source="ZkDkmKv_Wg0DZdJq-MGv-3" target="ZkDkmKv_Wg0DZdJq-MGv-5" edge="1">
          <mxGeometry relative="1" as="geometry" />
        </mxCell>
        <mxCell id="ZkDkmKv_Wg0DZdJq-MGv-3" value="Start initialization program" style="shape=ext;double=1;rounded=1;whiteSpace=wrap;html=1;fillColor=#0050ef;fontColor=#ffffff;strokeColor=#001DBC;" parent="1" vertex="1">
          <mxGeometry x="490" y="140" width="120" height="80" as="geometry" />
        </mxCell>
        <mxCell id="ZkDkmKv_Wg0DZdJq-MGv-28" style="edgeStyle=orthogonalEdgeStyle;rounded=0;orthogonalLoop=1;jettySize=auto;html=1;entryX=0.5;entryY=0;entryDx=0;entryDy=0;" parent="1" source="ZkDkmKv_Wg0DZdJq-MGv-4" target="ZkDkmKv_Wg0DZdJq-MGv-3" edge="1">
          <mxGeometry relative="1" as="geometry" />
        </mxCell>
        <mxCell id="ZkDkmKv_Wg0DZdJq-MGv-4" value="Power on" style="shape=ext;double=1;rounded=1;whiteSpace=wrap;html=1;fillColor=#d80073;strokeColor=#A50040;fontColor=#ffffff;" parent="1" vertex="1">
          <mxGeometry x="490" y="20" width="120" height="80" as="geometry" />
        </mxCell>
        <mxCell id="ZkDkmKv_Wg0DZdJq-MGv-11" style="edgeStyle=orthogonalEdgeStyle;rounded=0;orthogonalLoop=1;jettySize=auto;html=1;entryX=0.989;entryY=0.51;entryDx=0;entryDy=0;entryPerimeter=0;" parent="1" source="ZkDkmKv_Wg0DZdJq-MGv-5" target="ZkDkmKv_Wg0DZdJq-MGv-14" edge="1">
          <mxGeometry relative="1" as="geometry">
            <mxPoint x="410" y="340" as="targetPoint" />
          </mxGeometry>
        </mxCell>
        <mxCell id="ZkDkmKv_Wg0DZdJq-MGv-23" style="edgeStyle=orthogonalEdgeStyle;rounded=0;orthogonalLoop=1;jettySize=auto;html=1;" parent="1" source="ZkDkmKv_Wg0DZdJq-MGv-5" target="ZkDkmKv_Wg0DZdJq-MGv-6" edge="1">
          <mxGeometry relative="1" as="geometry" />
        </mxCell>
        <mxCell id="ZkDkmKv_Wg0DZdJq-MGv-25" style="edgeStyle=orthogonalEdgeStyle;rounded=0;orthogonalLoop=1;jettySize=auto;html=1;" parent="1" source="ZkDkmKv_Wg0DZdJq-MGv-5" target="ZkDkmKv_Wg0DZdJq-MGv-24" edge="1">
          <mxGeometry relative="1" as="geometry">
            <mxPoint x="740" y="297" as="targetPoint" />
          </mxGeometry>
        </mxCell>
        <mxCell id="ZkDkmKv_Wg0DZdJq-MGv-5" value="Scan" style="html=1;whiteSpace=wrap;aspect=fixed;shape=isoRectangle;fillColor=#fa6800;fontColor=#000000;strokeColor=#C73500;" parent="1" vertex="1">
          <mxGeometry x="472.5" y="250" width="155" height="93" as="geometry" />
        </mxCell>
        <mxCell id="PDKEiuR8H4hDW7ctw3Op-4" style="edgeStyle=orthogonalEdgeStyle;rounded=0;orthogonalLoop=1;jettySize=auto;html=1;entryX=0.51;entryY=0.043;entryDx=0;entryDy=0;entryPerimeter=0;endArrow=none;endFill=0;" edge="1" parent="1" source="ZkDkmKv_Wg0DZdJq-MGv-6" target="PDKEiuR8H4hDW7ctw3Op-1">
          <mxGeometry relative="1" as="geometry" />
        </mxCell>
        <mxCell id="ZkDkmKv_Wg0DZdJq-MGv-6" value="Move forward" style="shape=ext;double=1;rounded=1;whiteSpace=wrap;html=1;fillColor=#76608a;fontColor=#ffffff;strokeColor=#432D57;" parent="1" vertex="1">
          <mxGeometry x="485" y="425" width="130" height="80" as="geometry" />
        </mxCell>
        <mxCell id="PDKEiuR8H4hDW7ctw3Op-8" style="edgeStyle=orthogonalEdgeStyle;orthogonalLoop=1;jettySize=auto;html=1;entryX=0.213;entryY=0.323;entryDx=0;entryDy=0;entryPerimeter=0;curved=1;" edge="1" parent="1" source="ZkDkmKv_Wg0DZdJq-MGv-7" target="PDKEiuR8H4hDW7ctw3Op-1">
          <mxGeometry relative="1" as="geometry">
            <Array as="points">
              <mxPoint x="350" y="440" />
              <mxPoint x="350" y="710" />
            </Array>
          </mxGeometry>
        </mxCell>
        <mxCell id="ZkDkmKv_Wg0DZdJq-MGv-7" value="Strafe right" style="shape=ext;double=1;rounded=1;whiteSpace=wrap;html=1;fillColor=#76608a;fontColor=#ffffff;strokeColor=#432D57;" parent="1" vertex="1">
          <mxGeometry x="227.5" y="400" width="120" height="80" as="geometry" />
        </mxCell>
        <mxCell id="ZkDkmKv_Wg0DZdJq-MGv-13" value="Forward blocked?" style="text;html=1;strokeColor=none;fillColor=none;align=center;verticalAlign=middle;whiteSpace=wrap;rounded=0;fontStyle=1" parent="1" vertex="1">
          <mxGeometry x="390" y="250" width="60" height="30" as="geometry" />
        </mxCell>
        <mxCell id="ZkDkmKv_Wg0DZdJq-MGv-19" style="edgeStyle=orthogonalEdgeStyle;rounded=0;orthogonalLoop=1;jettySize=auto;html=1;entryX=0.5;entryY=0;entryDx=0;entryDy=0;" parent="1" source="ZkDkmKv_Wg0DZdJq-MGv-14" target="ZkDkmKv_Wg0DZdJq-MGv-7" edge="1">
          <mxGeometry relative="1" as="geometry" />
        </mxCell>
        <mxCell id="ZkDkmKv_Wg0DZdJq-MGv-22" style="edgeStyle=orthogonalEdgeStyle;rounded=0;orthogonalLoop=1;jettySize=auto;html=1;" parent="1" source="ZkDkmKv_Wg0DZdJq-MGv-14" target="ZkDkmKv_Wg0DZdJq-MGv-2" edge="1">
          <mxGeometry relative="1" as="geometry" />
        </mxCell>
        <mxCell id="ZkDkmKv_Wg0DZdJq-MGv-14" value="Scan" style="html=1;whiteSpace=wrap;aspect=fixed;shape=isoRectangle;fillColor=#fa6800;fontColor=#000000;strokeColor=#C73500;" parent="1" vertex="1">
          <mxGeometry x="210" y="250" width="155" height="93" as="geometry" />
        </mxCell>
        <mxCell id="ZkDkmKv_Wg0DZdJq-MGv-15" value="Forward Clear?" style="text;html=1;strokeColor=none;fillColor=none;align=center;verticalAlign=middle;whiteSpace=wrap;rounded=0;fontStyle=1" parent="1" vertex="1">
          <mxGeometry x="567.5" y="360" width="60" height="30" as="geometry" />
        </mxCell>
        <mxCell id="ZkDkmKv_Wg0DZdJq-MGv-24" value="Self-destruct" style="shape=ext;double=1;rounded=1;whiteSpace=wrap;html=1;fillColor=#e51400;fontColor=#ffffff;strokeColor=#B20000;" parent="1" vertex="1">
          <mxGeometry x="720" y="440" width="130" height="80" as="geometry" />
        </mxCell>
        <mxCell id="ZkDkmKv_Wg0DZdJq-MGv-26" value="No available paths?" style="text;html=1;strokeColor=none;fillColor=none;align=center;verticalAlign=middle;whiteSpace=wrap;rounded=0;fontStyle=1" parent="1" vertex="1">
          <mxGeometry x="720" y="243.25" width="100" height="43.5" as="geometry" />
        </mxCell>
        <mxCell id="ZkDkmKv_Wg0DZdJq-MGv-29" value="Left clear?" style="text;html=1;strokeColor=none;fillColor=none;align=center;verticalAlign=middle;whiteSpace=wrap;rounded=0;fontStyle=1" parent="1" vertex="1">
          <mxGeometry x="167.5" y="243.25" width="60" height="30" as="geometry" />
        </mxCell>
        <mxCell id="ZkDkmKv_Wg0DZdJq-MGv-30" value="Right clear?" style="text;html=1;strokeColor=none;fillColor=none;align=center;verticalAlign=middle;whiteSpace=wrap;rounded=0;fontStyle=1" parent="1" vertex="1">
          <mxGeometry x="210" y="350" width="60" height="30" as="geometry" />
        </mxCell>
        <mxCell id="PDKEiuR8H4hDW7ctw3Op-5" style="edgeStyle=orthogonalEdgeStyle;orthogonalLoop=1;jettySize=auto;html=1;curved=1;entryX=1;entryY=0.5;entryDx=0;entryDy=0;" edge="1" parent="1" source="PDKEiuR8H4hDW7ctw3Op-1" target="PDKEiuR8H4hDW7ctw3Op-6">
          <mxGeometry relative="1" as="geometry">
            <mxPoint x="820" y="726.5" as="targetPoint" />
            <Array as="points">
              <mxPoint x="548" y="790" />
              <mxPoint x="1000" y="790" />
              <mxPoint x="1000" y="180" />
            </Array>
          </mxGeometry>
        </mxCell>
        <mxCell id="PDKEiuR8H4hDW7ctw3Op-9" style="edgeStyle=orthogonalEdgeStyle;rounded=0;orthogonalLoop=1;jettySize=auto;html=1;entryX=0.5;entryY=1;entryDx=0;entryDy=0;" edge="1" parent="1" source="PDKEiuR8H4hDW7ctw3Op-1" target="ZkDkmKv_Wg0DZdJq-MGv-24">
          <mxGeometry relative="1" as="geometry" />
        </mxCell>
        <mxCell id="PDKEiuR8H4hDW7ctw3Op-1" value="Scan for object to pick ujp" style="html=1;whiteSpace=wrap;aspect=fixed;shape=isoRectangle;fillColor=#fa6800;fontColor=#000000;strokeColor=#C73500;" vertex="1" parent="1">
          <mxGeometry x="470" y="680" width="155" height="93" as="geometry" />
        </mxCell>
        <mxCell id="PDKEiuR8H4hDW7ctw3Op-7" style="edgeStyle=orthogonalEdgeStyle;rounded=0;orthogonalLoop=1;jettySize=auto;html=1;entryX=1;entryY=0.5;entryDx=0;entryDy=0;" edge="1" parent="1" source="PDKEiuR8H4hDW7ctw3Op-6" target="ZkDkmKv_Wg0DZdJq-MGv-3">
          <mxGeometry relative="1" as="geometry">
            <mxPoint x="620" y="180" as="targetPoint" />
          </mxGeometry>
        </mxCell>
        <mxCell id="PDKEiuR8H4hDW7ctw3Op-6" value="Restart logic" style="shape=ext;double=1;rounded=1;whiteSpace=wrap;html=1;fillColor=#0050ef;fontColor=#ffffff;strokeColor=#001DBC;" vertex="1" parent="1">
          <mxGeometry x="690" y="140" width="120" height="80" as="geometry" />
        </mxCell>
        <mxCell id="PDKEiuR8H4hDW7ctw3Op-10" value="No object?" style="text;html=1;strokeColor=none;fillColor=none;align=center;verticalAlign=middle;whiteSpace=wrap;rounded=0;fontStyle=1" vertex="1" parent="1">
          <mxGeometry x="590" y="800" width="60" height="30" as="geometry" />
        </mxCell>
        <mxCell id="PDKEiuR8H4hDW7ctw3Op-11" value="Object available?" style="text;html=1;strokeColor=none;fillColor=none;align=center;verticalAlign=middle;whiteSpace=wrap;rounded=0;fontStyle=1" vertex="1" parent="1">
          <mxGeometry x="630" y="680" width="60" height="20" as="geometry" />
        </mxCell>
      </root>
    </mxGraphModel>
  </diagram>
</mxfile>
